<mxfile host="Electron" agent="Mozilla/5.0 (Windows NT 10.0; Win64; x64) AppleWebKit/537.36 (KHTML, like Gecko) draw.io/27.0.9 Chrome/134.0.6998.205 Electron/35.4.0 Safari/537.36" version="27.0.9">
  <diagram name="Page-1" id="yXXxy7qz2wfKuxrvr1Yr">
    <mxGraphModel dx="1678" dy="4289" grid="1" gridSize="10" guides="1" tooltips="1" connect="1" arrows="1" fold="1" page="1" pageScale="1" pageWidth="2339" pageHeight="3300" math="0" shadow="0">
      <root>
        <mxCell id="0" />
        <mxCell id="1" parent="0" />
        <mxCell id="1y_34zkGxFqxFUVfifvg-1" value="IT Landscape" style="shape=table;startSize=30;container=1;collapsible=0;childLayout=tableLayout;strokeColor=default;fontSize=16;" vertex="1" parent="1">
          <mxGeometry x="290" y="-390" width="1300" height="541" as="geometry" />
        </mxCell>
        <mxCell id="1y_34zkGxFqxFUVfifvg-2" value="" style="shape=tableRow;horizontal=0;startSize=0;swimlaneHead=0;swimlaneBody=0;strokeColor=inherit;top=0;left=0;bottom=0;right=0;collapsible=0;dropTarget=0;fillColor=none;points=[[0,0.5],[1,0.5]];portConstraint=eastwest;fontSize=16;" vertex="1" parent="1y_34zkGxFqxFUVfifvg-1">
          <mxGeometry y="30" width="1300" height="73" as="geometry" />
        </mxCell>
        <mxCell id="1y_34zkGxFqxFUVfifvg-3" value="" style="shape=partialRectangle;html=1;whiteSpace=wrap;connectable=0;strokeColor=inherit;overflow=hidden;fillColor=none;top=0;left=0;bottom=0;right=0;pointerEvents=1;fontSize=16;" vertex="1" parent="1y_34zkGxFqxFUVfifvg-2">
          <mxGeometry width="185" height="73" as="geometry">
            <mxRectangle width="185" height="73" as="alternateBounds" />
          </mxGeometry>
        </mxCell>
        <mxCell id="1y_34zkGxFqxFUVfifvg-4" value="Продажи через колл-центр" style="shape=partialRectangle;html=1;whiteSpace=wrap;connectable=0;strokeColor=inherit;overflow=hidden;fillColor=none;top=0;left=0;bottom=0;right=0;pointerEvents=1;fontSize=16;" vertex="1" parent="1y_34zkGxFqxFUVfifvg-2">
          <mxGeometry x="185" width="186" height="73" as="geometry">
            <mxRectangle width="186" height="73" as="alternateBounds" />
          </mxGeometry>
        </mxCell>
        <mxCell id="1y_34zkGxFqxFUVfifvg-5" value="Продажи в сети отделений" style="shape=partialRectangle;html=1;whiteSpace=wrap;connectable=0;strokeColor=inherit;overflow=hidden;fillColor=none;top=0;left=0;bottom=0;right=0;pointerEvents=1;fontSize=16;" vertex="1" parent="1y_34zkGxFqxFUVfifvg-2">
          <mxGeometry x="371" width="185" height="73" as="geometry">
            <mxRectangle width="185" height="73" as="alternateBounds" />
          </mxGeometry>
        </mxCell>
        <mxCell id="1y_34zkGxFqxFUVfifvg-6" value="Digital-оповещения клиентов" style="shape=partialRectangle;html=1;whiteSpace=wrap;connectable=0;strokeColor=inherit;overflow=hidden;fillColor=none;top=0;left=0;bottom=0;right=0;pointerEvents=1;fontSize=16;" vertex="1" parent="1y_34zkGxFqxFUVfifvg-2">
          <mxGeometry x="556" width="188" height="73" as="geometry">
            <mxRectangle width="188" height="73" as="alternateBounds" />
          </mxGeometry>
        </mxCell>
        <mxCell id="1y_34zkGxFqxFUVfifvg-7" value="Обслуживание депозитных процессов" style="shape=partialRectangle;html=1;whiteSpace=wrap;connectable=0;strokeColor=inherit;overflow=hidden;fillColor=none;top=0;left=0;bottom=0;right=0;pointerEvents=1;fontSize=16;" vertex="1" parent="1y_34zkGxFqxFUVfifvg-2">
          <mxGeometry x="744" width="185" height="73" as="geometry">
            <mxRectangle width="185" height="73" as="alternateBounds" />
          </mxGeometry>
        </mxCell>
        <mxCell id="1y_34zkGxFqxFUVfifvg-8" value="Обслуживание кредитных процессов" style="shape=partialRectangle;html=1;whiteSpace=wrap;connectable=0;strokeColor=inherit;overflow=hidden;fillColor=none;top=0;left=0;bottom=0;right=0;pointerEvents=1;fontSize=16;" vertex="1" parent="1y_34zkGxFqxFUVfifvg-2">
          <mxGeometry x="929" width="186" height="73" as="geometry">
            <mxRectangle width="186" height="73" as="alternateBounds" />
          </mxGeometry>
        </mxCell>
        <mxCell id="1y_34zkGxFqxFUVfifvg-9" value="Управление договорами" style="shape=partialRectangle;html=1;whiteSpace=wrap;connectable=0;strokeColor=inherit;overflow=hidden;fillColor=none;top=0;left=0;bottom=0;right=0;pointerEvents=1;fontSize=16;" vertex="1" parent="1y_34zkGxFqxFUVfifvg-2">
          <mxGeometry x="1115" width="185" height="73" as="geometry">
            <mxRectangle width="185" height="73" as="alternateBounds" />
          </mxGeometry>
        </mxCell>
        <mxCell id="1y_34zkGxFqxFUVfifvg-10" value="" style="shape=tableRow;horizontal=0;startSize=0;swimlaneHead=0;swimlaneBody=0;strokeColor=inherit;top=0;left=0;bottom=0;right=0;collapsible=0;dropTarget=0;fillColor=none;points=[[0,0.5],[1,0.5]];portConstraint=eastwest;fontSize=16;" vertex="1" parent="1y_34zkGxFqxFUVfifvg-1">
          <mxGeometry y="103" width="1300" height="73" as="geometry" />
        </mxCell>
        <mxCell id="1y_34zkGxFqxFUVfifvg-11" value="Кол-центр" style="shape=partialRectangle;html=1;whiteSpace=wrap;connectable=0;strokeColor=inherit;overflow=hidden;fillColor=none;top=0;left=0;bottom=0;right=0;pointerEvents=1;fontSize=16;" vertex="1" parent="1y_34zkGxFqxFUVfifvg-10">
          <mxGeometry width="185" height="73" as="geometry">
            <mxRectangle width="185" height="73" as="alternateBounds" />
          </mxGeometry>
        </mxCell>
        <mxCell id="1y_34zkGxFqxFUVfifvg-12" value="" style="shape=partialRectangle;html=1;whiteSpace=wrap;connectable=0;strokeColor=inherit;overflow=hidden;fillColor=none;top=0;left=0;bottom=0;right=0;pointerEvents=1;fontSize=16;" vertex="1" parent="1y_34zkGxFqxFUVfifvg-10">
          <mxGeometry x="185" width="186" height="73" as="geometry">
            <mxRectangle width="186" height="73" as="alternateBounds" />
          </mxGeometry>
        </mxCell>
        <mxCell id="1y_34zkGxFqxFUVfifvg-13" value="" style="shape=partialRectangle;html=1;whiteSpace=wrap;connectable=0;strokeColor=inherit;overflow=hidden;fillColor=none;top=0;left=0;bottom=0;right=0;pointerEvents=1;fontSize=16;" vertex="1" parent="1y_34zkGxFqxFUVfifvg-10">
          <mxGeometry x="371" width="185" height="73" as="geometry">
            <mxRectangle width="185" height="73" as="alternateBounds" />
          </mxGeometry>
        </mxCell>
        <mxCell id="1y_34zkGxFqxFUVfifvg-14" value="" style="shape=partialRectangle;html=1;whiteSpace=wrap;connectable=0;strokeColor=inherit;overflow=hidden;fillColor=none;top=0;left=0;bottom=0;right=0;pointerEvents=1;fontSize=16;" vertex="1" parent="1y_34zkGxFqxFUVfifvg-10">
          <mxGeometry x="556" width="188" height="73" as="geometry">
            <mxRectangle width="188" height="73" as="alternateBounds" />
          </mxGeometry>
        </mxCell>
        <mxCell id="1y_34zkGxFqxFUVfifvg-15" style="shape=partialRectangle;html=1;whiteSpace=wrap;connectable=0;strokeColor=inherit;overflow=hidden;fillColor=none;top=0;left=0;bottom=0;right=0;pointerEvents=1;fontSize=16;" vertex="1" parent="1y_34zkGxFqxFUVfifvg-10">
          <mxGeometry x="744" width="185" height="73" as="geometry">
            <mxRectangle width="185" height="73" as="alternateBounds" />
          </mxGeometry>
        </mxCell>
        <mxCell id="1y_34zkGxFqxFUVfifvg-16" style="shape=partialRectangle;html=1;whiteSpace=wrap;connectable=0;strokeColor=inherit;overflow=hidden;fillColor=none;top=0;left=0;bottom=0;right=0;pointerEvents=1;fontSize=16;" vertex="1" parent="1y_34zkGxFqxFUVfifvg-10">
          <mxGeometry x="929" width="186" height="73" as="geometry">
            <mxRectangle width="186" height="73" as="alternateBounds" />
          </mxGeometry>
        </mxCell>
        <mxCell id="1y_34zkGxFqxFUVfifvg-17" style="shape=partialRectangle;html=1;whiteSpace=wrap;connectable=0;strokeColor=inherit;overflow=hidden;fillColor=none;top=0;left=0;bottom=0;right=0;pointerEvents=1;fontSize=16;" vertex="1" parent="1y_34zkGxFqxFUVfifvg-10">
          <mxGeometry x="1115" width="185" height="73" as="geometry">
            <mxRectangle width="185" height="73" as="alternateBounds" />
          </mxGeometry>
        </mxCell>
        <mxCell id="1y_34zkGxFqxFUVfifvg-18" value="" style="shape=tableRow;horizontal=0;startSize=0;swimlaneHead=0;swimlaneBody=0;strokeColor=inherit;top=0;left=0;bottom=0;right=0;collapsible=0;dropTarget=0;fillColor=none;points=[[0,0.5],[1,0.5]];portConstraint=eastwest;fontSize=16;" vertex="1" parent="1y_34zkGxFqxFUVfifvg-1">
          <mxGeometry y="176" width="1300" height="73" as="geometry" />
        </mxCell>
        <mxCell id="1y_34zkGxFqxFUVfifvg-19" value="Управление обслуживанием в сети отделений" style="shape=partialRectangle;html=1;whiteSpace=wrap;connectable=0;strokeColor=inherit;overflow=hidden;fillColor=none;top=0;left=0;bottom=0;right=0;pointerEvents=1;fontSize=16;" vertex="1" parent="1y_34zkGxFqxFUVfifvg-18">
          <mxGeometry width="185" height="73" as="geometry">
            <mxRectangle width="185" height="73" as="alternateBounds" />
          </mxGeometry>
        </mxCell>
        <mxCell id="1y_34zkGxFqxFUVfifvg-20" value="" style="shape=partialRectangle;html=1;whiteSpace=wrap;connectable=0;strokeColor=inherit;overflow=hidden;fillColor=none;top=0;left=0;bottom=0;right=0;pointerEvents=1;fontSize=16;" vertex="1" parent="1y_34zkGxFqxFUVfifvg-18">
          <mxGeometry x="185" width="186" height="73" as="geometry">
            <mxRectangle width="186" height="73" as="alternateBounds" />
          </mxGeometry>
        </mxCell>
        <mxCell id="1y_34zkGxFqxFUVfifvg-21" value="" style="shape=partialRectangle;html=1;whiteSpace=wrap;connectable=0;strokeColor=inherit;overflow=hidden;fillColor=none;top=0;left=0;bottom=0;right=0;pointerEvents=1;fontSize=16;" vertex="1" parent="1y_34zkGxFqxFUVfifvg-18">
          <mxGeometry x="371" width="185" height="73" as="geometry">
            <mxRectangle width="185" height="73" as="alternateBounds" />
          </mxGeometry>
        </mxCell>
        <mxCell id="1y_34zkGxFqxFUVfifvg-22" style="shape=partialRectangle;html=1;whiteSpace=wrap;connectable=0;strokeColor=inherit;overflow=hidden;fillColor=none;top=0;left=0;bottom=0;right=0;pointerEvents=1;fontSize=16;" vertex="1" parent="1y_34zkGxFqxFUVfifvg-18">
          <mxGeometry x="556" width="188" height="73" as="geometry">
            <mxRectangle width="188" height="73" as="alternateBounds" />
          </mxGeometry>
        </mxCell>
        <mxCell id="1y_34zkGxFqxFUVfifvg-23" style="shape=partialRectangle;html=1;whiteSpace=wrap;connectable=0;strokeColor=inherit;overflow=hidden;fillColor=none;top=0;left=0;bottom=0;right=0;pointerEvents=1;fontSize=16;" vertex="1" parent="1y_34zkGxFqxFUVfifvg-18">
          <mxGeometry x="744" width="185" height="73" as="geometry">
            <mxRectangle width="185" height="73" as="alternateBounds" />
          </mxGeometry>
        </mxCell>
        <mxCell id="1y_34zkGxFqxFUVfifvg-24" style="shape=partialRectangle;html=1;whiteSpace=wrap;connectable=0;strokeColor=inherit;overflow=hidden;fillColor=none;top=0;left=0;bottom=0;right=0;pointerEvents=1;fontSize=16;" vertex="1" parent="1y_34zkGxFqxFUVfifvg-18">
          <mxGeometry x="929" width="186" height="73" as="geometry">
            <mxRectangle width="186" height="73" as="alternateBounds" />
          </mxGeometry>
        </mxCell>
        <mxCell id="1y_34zkGxFqxFUVfifvg-25" style="shape=partialRectangle;html=1;whiteSpace=wrap;connectable=0;strokeColor=inherit;overflow=hidden;fillColor=none;top=0;left=0;bottom=0;right=0;pointerEvents=1;fontSize=16;" vertex="1" parent="1y_34zkGxFqxFUVfifvg-18">
          <mxGeometry x="1115" width="185" height="73" as="geometry">
            <mxRectangle width="185" height="73" as="alternateBounds" />
          </mxGeometry>
        </mxCell>
        <mxCell id="1y_34zkGxFqxFUVfifvg-34" style="shape=tableRow;horizontal=0;startSize=0;swimlaneHead=0;swimlaneBody=0;strokeColor=inherit;top=0;left=0;bottom=0;right=0;collapsible=0;dropTarget=0;fillColor=none;points=[[0,0.5],[1,0.5]];portConstraint=eastwest;fontSize=16;" vertex="1" parent="1y_34zkGxFqxFUVfifvg-1">
          <mxGeometry y="249" width="1300" height="73" as="geometry" />
        </mxCell>
        <mxCell id="1y_34zkGxFqxFUVfifvg-35" value="IT-отдел" style="shape=partialRectangle;html=1;whiteSpace=wrap;connectable=0;strokeColor=inherit;overflow=hidden;fillColor=none;top=0;left=0;bottom=0;right=0;pointerEvents=1;fontSize=16;" vertex="1" parent="1y_34zkGxFqxFUVfifvg-34">
          <mxGeometry width="185" height="73" as="geometry">
            <mxRectangle width="185" height="73" as="alternateBounds" />
          </mxGeometry>
        </mxCell>
        <mxCell id="1y_34zkGxFqxFUVfifvg-36" style="shape=partialRectangle;html=1;whiteSpace=wrap;connectable=0;strokeColor=inherit;overflow=hidden;fillColor=none;top=0;left=0;bottom=0;right=0;pointerEvents=1;fontSize=16;" vertex="1" parent="1y_34zkGxFqxFUVfifvg-34">
          <mxGeometry x="185" width="186" height="73" as="geometry">
            <mxRectangle width="186" height="73" as="alternateBounds" />
          </mxGeometry>
        </mxCell>
        <mxCell id="1y_34zkGxFqxFUVfifvg-37" style="shape=partialRectangle;html=1;whiteSpace=wrap;connectable=0;strokeColor=inherit;overflow=hidden;fillColor=none;top=0;left=0;bottom=0;right=0;pointerEvents=1;fontSize=16;" vertex="1" parent="1y_34zkGxFqxFUVfifvg-34">
          <mxGeometry x="371" width="185" height="73" as="geometry">
            <mxRectangle width="185" height="73" as="alternateBounds" />
          </mxGeometry>
        </mxCell>
        <mxCell id="1y_34zkGxFqxFUVfifvg-38" style="shape=partialRectangle;html=1;whiteSpace=wrap;connectable=0;strokeColor=inherit;overflow=hidden;fillColor=none;top=0;left=0;bottom=0;right=0;pointerEvents=1;fontSize=16;" vertex="1" parent="1y_34zkGxFqxFUVfifvg-34">
          <mxGeometry x="556" width="188" height="73" as="geometry">
            <mxRectangle width="188" height="73" as="alternateBounds" />
          </mxGeometry>
        </mxCell>
        <mxCell id="1y_34zkGxFqxFUVfifvg-39" style="shape=partialRectangle;html=1;whiteSpace=wrap;connectable=0;strokeColor=inherit;overflow=hidden;fillColor=none;top=0;left=0;bottom=0;right=0;pointerEvents=1;fontSize=16;" vertex="1" parent="1y_34zkGxFqxFUVfifvg-34">
          <mxGeometry x="744" width="185" height="73" as="geometry">
            <mxRectangle width="185" height="73" as="alternateBounds" />
          </mxGeometry>
        </mxCell>
        <mxCell id="1y_34zkGxFqxFUVfifvg-40" style="shape=partialRectangle;html=1;whiteSpace=wrap;connectable=0;strokeColor=inherit;overflow=hidden;fillColor=none;top=0;left=0;bottom=0;right=0;pointerEvents=1;fontSize=16;" vertex="1" parent="1y_34zkGxFqxFUVfifvg-34">
          <mxGeometry x="929" width="186" height="73" as="geometry">
            <mxRectangle width="186" height="73" as="alternateBounds" />
          </mxGeometry>
        </mxCell>
        <mxCell id="1y_34zkGxFqxFUVfifvg-41" style="shape=partialRectangle;html=1;whiteSpace=wrap;connectable=0;strokeColor=inherit;overflow=hidden;fillColor=none;top=0;left=0;bottom=0;right=0;pointerEvents=1;fontSize=16;" vertex="1" parent="1y_34zkGxFqxFUVfifvg-34">
          <mxGeometry x="1115" width="185" height="73" as="geometry">
            <mxRectangle width="185" height="73" as="alternateBounds" />
          </mxGeometry>
        </mxCell>
        <mxCell id="1y_34zkGxFqxFUVfifvg-42" style="shape=tableRow;horizontal=0;startSize=0;swimlaneHead=0;swimlaneBody=0;strokeColor=inherit;top=0;left=0;bottom=0;right=0;collapsible=0;dropTarget=0;fillColor=none;points=[[0,0.5],[1,0.5]];portConstraint=eastwest;fontSize=16;" vertex="1" parent="1y_34zkGxFqxFUVfifvg-1">
          <mxGeometry y="322" width="1300" height="73" as="geometry" />
        </mxCell>
        <mxCell id="1y_34zkGxFqxFUVfifvg-43" value="Управление обслуживанием депозитных продуктов" style="shape=partialRectangle;html=1;whiteSpace=wrap;connectable=0;strokeColor=inherit;overflow=hidden;fillColor=none;top=0;left=0;bottom=0;right=0;pointerEvents=1;fontSize=16;" vertex="1" parent="1y_34zkGxFqxFUVfifvg-42">
          <mxGeometry width="185" height="73" as="geometry">
            <mxRectangle width="185" height="73" as="alternateBounds" />
          </mxGeometry>
        </mxCell>
        <mxCell id="1y_34zkGxFqxFUVfifvg-44" style="shape=partialRectangle;html=1;whiteSpace=wrap;connectable=0;strokeColor=inherit;overflow=hidden;fillColor=none;top=0;left=0;bottom=0;right=0;pointerEvents=1;fontSize=16;" vertex="1" parent="1y_34zkGxFqxFUVfifvg-42">
          <mxGeometry x="185" width="186" height="73" as="geometry">
            <mxRectangle width="186" height="73" as="alternateBounds" />
          </mxGeometry>
        </mxCell>
        <mxCell id="1y_34zkGxFqxFUVfifvg-45" style="shape=partialRectangle;html=1;whiteSpace=wrap;connectable=0;strokeColor=inherit;overflow=hidden;fillColor=none;top=0;left=0;bottom=0;right=0;pointerEvents=1;fontSize=16;" vertex="1" parent="1y_34zkGxFqxFUVfifvg-42">
          <mxGeometry x="371" width="185" height="73" as="geometry">
            <mxRectangle width="185" height="73" as="alternateBounds" />
          </mxGeometry>
        </mxCell>
        <mxCell id="1y_34zkGxFqxFUVfifvg-46" style="shape=partialRectangle;html=1;whiteSpace=wrap;connectable=0;strokeColor=inherit;overflow=hidden;fillColor=none;top=0;left=0;bottom=0;right=0;pointerEvents=1;fontSize=16;" vertex="1" parent="1y_34zkGxFqxFUVfifvg-42">
          <mxGeometry x="556" width="188" height="73" as="geometry">
            <mxRectangle width="188" height="73" as="alternateBounds" />
          </mxGeometry>
        </mxCell>
        <mxCell id="1y_34zkGxFqxFUVfifvg-47" style="shape=partialRectangle;html=1;whiteSpace=wrap;connectable=0;strokeColor=inherit;overflow=hidden;fillColor=none;top=0;left=0;bottom=0;right=0;pointerEvents=1;fontSize=16;" vertex="1" parent="1y_34zkGxFqxFUVfifvg-42">
          <mxGeometry x="744" width="185" height="73" as="geometry">
            <mxRectangle width="185" height="73" as="alternateBounds" />
          </mxGeometry>
        </mxCell>
        <mxCell id="1y_34zkGxFqxFUVfifvg-48" style="shape=partialRectangle;html=1;whiteSpace=wrap;connectable=0;strokeColor=inherit;overflow=hidden;fillColor=none;top=0;left=0;bottom=0;right=0;pointerEvents=1;fontSize=16;" vertex="1" parent="1y_34zkGxFqxFUVfifvg-42">
          <mxGeometry x="929" width="186" height="73" as="geometry">
            <mxRectangle width="186" height="73" as="alternateBounds" />
          </mxGeometry>
        </mxCell>
        <mxCell id="1y_34zkGxFqxFUVfifvg-49" style="shape=partialRectangle;html=1;whiteSpace=wrap;connectable=0;strokeColor=inherit;overflow=hidden;fillColor=none;top=0;left=0;bottom=0;right=0;pointerEvents=1;fontSize=16;" vertex="1" parent="1y_34zkGxFqxFUVfifvg-42">
          <mxGeometry x="1115" width="185" height="73" as="geometry">
            <mxRectangle width="185" height="73" as="alternateBounds" />
          </mxGeometry>
        </mxCell>
        <mxCell id="1y_34zkGxFqxFUVfifvg-50" style="shape=tableRow;horizontal=0;startSize=0;swimlaneHead=0;swimlaneBody=0;strokeColor=inherit;top=0;left=0;bottom=0;right=0;collapsible=0;dropTarget=0;fillColor=none;points=[[0,0.5],[1,0.5]];portConstraint=eastwest;fontSize=16;" vertex="1" parent="1y_34zkGxFqxFUVfifvg-1">
          <mxGeometry y="395" width="1300" height="73" as="geometry" />
        </mxCell>
        <mxCell id="1y_34zkGxFqxFUVfifvg-51" value="Управление обслуживанием кредитных продуктов" style="shape=partialRectangle;html=1;whiteSpace=wrap;connectable=0;strokeColor=inherit;overflow=hidden;fillColor=none;top=0;left=0;bottom=0;right=0;pointerEvents=1;fontSize=16;" vertex="1" parent="1y_34zkGxFqxFUVfifvg-50">
          <mxGeometry width="185" height="73" as="geometry">
            <mxRectangle width="185" height="73" as="alternateBounds" />
          </mxGeometry>
        </mxCell>
        <mxCell id="1y_34zkGxFqxFUVfifvg-52" value="" style="shape=partialRectangle;html=1;whiteSpace=wrap;connectable=0;strokeColor=inherit;overflow=hidden;fillColor=none;top=0;left=0;bottom=0;right=0;pointerEvents=1;fontSize=16;" vertex="1" parent="1y_34zkGxFqxFUVfifvg-50">
          <mxGeometry x="185" width="186" height="73" as="geometry">
            <mxRectangle width="186" height="73" as="alternateBounds" />
          </mxGeometry>
        </mxCell>
        <mxCell id="1y_34zkGxFqxFUVfifvg-53" style="shape=partialRectangle;html=1;whiteSpace=wrap;connectable=0;strokeColor=inherit;overflow=hidden;fillColor=none;top=0;left=0;bottom=0;right=0;pointerEvents=1;fontSize=16;" vertex="1" parent="1y_34zkGxFqxFUVfifvg-50">
          <mxGeometry x="371" width="185" height="73" as="geometry">
            <mxRectangle width="185" height="73" as="alternateBounds" />
          </mxGeometry>
        </mxCell>
        <mxCell id="1y_34zkGxFqxFUVfifvg-54" style="shape=partialRectangle;html=1;whiteSpace=wrap;connectable=0;strokeColor=inherit;overflow=hidden;fillColor=none;top=0;left=0;bottom=0;right=0;pointerEvents=1;fontSize=16;" vertex="1" parent="1y_34zkGxFqxFUVfifvg-50">
          <mxGeometry x="556" width="188" height="73" as="geometry">
            <mxRectangle width="188" height="73" as="alternateBounds" />
          </mxGeometry>
        </mxCell>
        <mxCell id="1y_34zkGxFqxFUVfifvg-55" style="shape=partialRectangle;html=1;whiteSpace=wrap;connectable=0;strokeColor=inherit;overflow=hidden;fillColor=none;top=0;left=0;bottom=0;right=0;pointerEvents=1;fontSize=16;" vertex="1" parent="1y_34zkGxFqxFUVfifvg-50">
          <mxGeometry x="744" width="185" height="73" as="geometry">
            <mxRectangle width="185" height="73" as="alternateBounds" />
          </mxGeometry>
        </mxCell>
        <mxCell id="1y_34zkGxFqxFUVfifvg-56" style="shape=partialRectangle;html=1;whiteSpace=wrap;connectable=0;strokeColor=inherit;overflow=hidden;fillColor=none;top=0;left=0;bottom=0;right=0;pointerEvents=1;fontSize=16;" vertex="1" parent="1y_34zkGxFqxFUVfifvg-50">
          <mxGeometry x="929" width="186" height="73" as="geometry">
            <mxRectangle width="186" height="73" as="alternateBounds" />
          </mxGeometry>
        </mxCell>
        <mxCell id="1y_34zkGxFqxFUVfifvg-57" style="shape=partialRectangle;html=1;whiteSpace=wrap;connectable=0;strokeColor=inherit;overflow=hidden;fillColor=none;top=0;left=0;bottom=0;right=0;pointerEvents=1;fontSize=16;" vertex="1" parent="1y_34zkGxFqxFUVfifvg-50">
          <mxGeometry x="1115" width="185" height="73" as="geometry">
            <mxRectangle width="185" height="73" as="alternateBounds" />
          </mxGeometry>
        </mxCell>
        <mxCell id="1y_34zkGxFqxFUVfifvg-74" value="" style="shape=tableRow;horizontal=0;startSize=0;swimlaneHead=0;swimlaneBody=0;strokeColor=inherit;top=0;left=0;bottom=0;right=0;collapsible=0;dropTarget=0;fillColor=none;points=[[0,0.5],[1,0.5]];portConstraint=eastwest;fontSize=16;" vertex="1" parent="1y_34zkGxFqxFUVfifvg-1">
          <mxGeometry y="468" width="1300" height="73" as="geometry" />
        </mxCell>
        <mxCell id="1y_34zkGxFqxFUVfifvg-75" value="Команда цифровой трансформации розничного бизнеса" style="shape=partialRectangle;html=1;whiteSpace=wrap;connectable=0;strokeColor=inherit;overflow=hidden;fillColor=none;top=0;left=0;bottom=0;right=0;pointerEvents=1;fontSize=16;" vertex="1" parent="1y_34zkGxFqxFUVfifvg-74">
          <mxGeometry width="185" height="73" as="geometry">
            <mxRectangle width="185" height="73" as="alternateBounds" />
          </mxGeometry>
        </mxCell>
        <mxCell id="1y_34zkGxFqxFUVfifvg-76" value="" style="shape=partialRectangle;html=1;whiteSpace=wrap;connectable=0;strokeColor=inherit;overflow=hidden;fillColor=none;top=0;left=0;bottom=0;right=0;pointerEvents=1;fontSize=16;" vertex="1" parent="1y_34zkGxFqxFUVfifvg-74">
          <mxGeometry x="185" width="186" height="73" as="geometry">
            <mxRectangle width="186" height="73" as="alternateBounds" />
          </mxGeometry>
        </mxCell>
        <mxCell id="1y_34zkGxFqxFUVfifvg-77" value="" style="shape=partialRectangle;html=1;whiteSpace=wrap;connectable=0;strokeColor=inherit;overflow=hidden;fillColor=none;top=0;left=0;bottom=0;right=0;pointerEvents=1;fontSize=16;" vertex="1" parent="1y_34zkGxFqxFUVfifvg-74">
          <mxGeometry x="371" width="185" height="73" as="geometry">
            <mxRectangle width="185" height="73" as="alternateBounds" />
          </mxGeometry>
        </mxCell>
        <mxCell id="1y_34zkGxFqxFUVfifvg-78" style="shape=partialRectangle;html=1;whiteSpace=wrap;connectable=0;strokeColor=inherit;overflow=hidden;fillColor=none;top=0;left=0;bottom=0;right=0;pointerEvents=1;fontSize=16;" vertex="1" parent="1y_34zkGxFqxFUVfifvg-74">
          <mxGeometry x="556" width="188" height="73" as="geometry">
            <mxRectangle width="188" height="73" as="alternateBounds" />
          </mxGeometry>
        </mxCell>
        <mxCell id="1y_34zkGxFqxFUVfifvg-79" style="shape=partialRectangle;html=1;whiteSpace=wrap;connectable=0;strokeColor=inherit;overflow=hidden;fillColor=none;top=0;left=0;bottom=0;right=0;pointerEvents=1;fontSize=16;" vertex="1" parent="1y_34zkGxFqxFUVfifvg-74">
          <mxGeometry x="744" width="185" height="73" as="geometry">
            <mxRectangle width="185" height="73" as="alternateBounds" />
          </mxGeometry>
        </mxCell>
        <mxCell id="1y_34zkGxFqxFUVfifvg-80" style="shape=partialRectangle;html=1;whiteSpace=wrap;connectable=0;strokeColor=inherit;overflow=hidden;fillColor=none;top=0;left=0;bottom=0;right=0;pointerEvents=1;fontSize=16;" vertex="1" parent="1y_34zkGxFqxFUVfifvg-74">
          <mxGeometry x="929" width="186" height="73" as="geometry">
            <mxRectangle width="186" height="73" as="alternateBounds" />
          </mxGeometry>
        </mxCell>
        <mxCell id="1y_34zkGxFqxFUVfifvg-81" style="shape=partialRectangle;html=1;whiteSpace=wrap;connectable=0;strokeColor=inherit;overflow=hidden;fillColor=none;top=0;left=0;bottom=0;right=0;pointerEvents=1;fontSize=16;" vertex="1" parent="1y_34zkGxFqxFUVfifvg-74">
          <mxGeometry x="1115" width="185" height="73" as="geometry">
            <mxRectangle width="185" height="73" as="alternateBounds" />
          </mxGeometry>
        </mxCell>
        <mxCell id="1y_34zkGxFqxFUVfifvg-89" value="&lt;font style=&quot;font-size: 12px;&quot;&gt;Система колл-центра&lt;/font&gt;" style="rounded=1;whiteSpace=wrap;html=1;fillColor=#e1d5e7;strokeColor=#9673a6;fontSize=8;" vertex="1" parent="1">
          <mxGeometry x="480" y="-280" width="176" height="59" as="geometry" />
        </mxCell>
        <mxCell id="1y_34zkGxFqxFUVfifvg-95" value="&lt;font style=&quot;font-size: 12px;&quot;&gt;&lt;span style=&quot;white-space: pre;&quot;&gt;&#x9;&lt;/span&gt;&lt;span style=&quot;white-space: pre;&quot;&gt;&#x9;&lt;/span&gt;&lt;span style=&quot;white-space: pre;&quot;&gt;&#x9;&lt;/span&gt;&lt;span style=&quot;white-space: pre;&quot;&gt;&#x9;&lt;/span&gt;&lt;span style=&quot;white-space: pre;&quot;&gt;&#x9;&lt;/span&gt;&lt;span style=&quot;white-space: pre;&quot;&gt;&#x9;&lt;/span&gt;&lt;span style=&quot;white-space: pre;&quot;&gt;&#x9;&lt;/span&gt;&lt;span style=&quot;white-space: pre;&quot;&gt;&#x9;&lt;/span&gt;&lt;span style=&quot;white-space: pre;&quot;&gt;&#x9;&lt;/span&gt;&lt;span style=&quot;white-space: pre;&quot;&gt;&#x9;&lt;/span&gt;&lt;span style=&quot;white-space: pre;&quot;&gt;&#x9;&lt;/span&gt;&lt;span style=&quot;white-space: pre;&quot;&gt;&#x9;&lt;/span&gt;&lt;span style=&quot;white-space: pre;&quot;&gt;&#x9;&lt;/span&gt;&lt;span style=&quot;white-space: pre;&quot;&gt;&#x9;&lt;/span&gt;&lt;span style=&quot;white-space: pre;&quot;&gt;&#x9;&lt;/span&gt;АБС&lt;/font&gt;" style="rounded=1;whiteSpace=wrap;html=1;fillColor=#dae8fc;strokeColor=#6c8ebf;fontSize=8;" vertex="1" parent="1">
          <mxGeometry x="669" y="-205" width="901" height="345" as="geometry" />
        </mxCell>
        <mxCell id="1y_34zkGxFqxFUVfifvg-96" value="&lt;font style=&quot;font-size: 12px;&quot;&gt;Интернет-банк&lt;/font&gt;" style="rounded=1;whiteSpace=wrap;html=1;fillColor=#d5e8d4;strokeColor=#82b366;fontSize=8;" vertex="1" parent="1">
          <mxGeometry x="854" y="-190" width="356" height="320" as="geometry" />
        </mxCell>
        <mxCell id="1y_34zkGxFqxFUVfifvg-92" value="СМС-шлюз телеком-оператора" style="rounded=1;whiteSpace=wrap;html=1;fillColor=#ffe6cc;strokeColor=#d79b00;" vertex="1" parent="1">
          <mxGeometry x="860" y="-130" width="340" height="50" as="geometry" />
        </mxCell>
      </root>
    </mxGraphModel>
  </diagram>
</mxfile>
